<?xml version="1.0" standalone="no"?>
<svg xmlns:xlink="http://www.w3.org/1999/xlink" id="wave" style="transform:rotate(0deg); transition: 0.3s" viewBox="0 0 1440 100" version="1.1" xmlns="http://www.w3.org/2000/svg"><defs><linearGradient id="sw-gradient-0" x1="0" x2="0" y1="1" y2="0"><stop stop-color="rgba(151, 6, 76, 1)" offset="0%"/><stop stop-color="rgba(151, 6, 76, 1)" offset="100%"/></linearGradient></defs><path style="transform:translate(0, 0px); opacity:1" fill="url(#sw-gradient-0)" d="M0,20L34.3,30C68.6,40,137,60,206,61.7C274.3,63,343,47,411,45C480,43,549,57,617,51.7C685.7,47,754,23,823,15C891.4,7,960,13,1029,28.3C1097.1,43,1166,67,1234,65C1302.9,63,1371,37,1440,21.7C1508.6,7,1577,3,1646,3.3C1714.3,3,1783,7,1851,15C1920,23,1989,37,2057,46.7C2125.7,57,2194,63,2263,61.7C2331.4,60,2400,50,2469,45C2537.1,40,2606,40,2674,48.3C2742.9,57,2811,73,2880,76.7C2948.6,80,3017,70,3086,65C3154.3,60,3223,60,3291,58.3C3360,57,3429,53,3497,53.3C3565.7,53,3634,57,3703,60C3771.4,63,3840,67,3909,66.7C3977.1,67,4046,63,4114,66.7C4182.9,70,4251,80,4320,80C4388.6,80,4457,70,4526,65C4594.3,60,4663,60,4731,63.3C4800,67,4869,73,4903,76.7L4937.1,80L4937.1,100L4902.9,100C4868.6,100,4800,100,4731,100C4662.9,100,4594,100,4526,100C4457.1,100,4389,100,4320,100C4251.4,100,4183,100,4114,100C4045.7,100,3977,100,3909,100C3840,100,3771,100,3703,100C3634.3,100,3566,100,3497,100C3428.6,100,3360,100,3291,100C3222.9,100,3154,100,3086,100C3017.1,100,2949,100,2880,100C2811.4,100,2743,100,2674,100C2605.7,100,2537,100,2469,100C2400,100,2331,100,2263,100C2194.3,100,2126,100,2057,100C1988.6,100,1920,100,1851,100C1782.9,100,1714,100,1646,100C1577.1,100,1509,100,1440,100C1371.4,100,1303,100,1234,100C1165.7,100,1097,100,1029,100C960,100,891,100,823,100C754.3,100,686,100,617,100C548.6,100,480,100,411,100C342.9,100,274,100,206,100C137.1,100,69,100,34,100L0,100Z"/></svg>