<?xml version="1.0" standalone="no"?>
<svg xmlns:xlink="http://www.w3.org/1999/xlink" id="wave" style="transform:rotate(0deg); transition: 0.3s" viewBox="0 0 1440 100" version="1.1" xmlns="http://www.w3.org/2000/svg"><defs><linearGradient id="sw-gradient-0" x1="0" x2="0" y1="1" y2="0"><stop stop-color="rgba(255, 235, 217, 1)" offset="0%"/><stop stop-color="rgba(255, 235, 217, 1)" offset="100%"/></linearGradient></defs><path style="transform:translate(0, 0px); opacity:1" fill="url(#sw-gradient-0)" d="M0,60L24,50C48,40,96,20,144,10C192,0,240,0,288,1.7C336,3,384,7,432,16.7C480,27,528,43,576,53.3C624,63,672,67,720,60C768,53,816,37,864,38.3C912,40,960,60,1008,60C1056,60,1104,40,1152,41.7C1200,43,1248,67,1296,66.7C1344,67,1392,43,1440,30C1488,17,1536,13,1584,16.7C1632,20,1680,30,1728,43.3C1776,57,1824,73,1872,66.7C1920,60,1968,30,2016,26.7C2064,23,2112,47,2160,53.3C2208,60,2256,50,2304,51.7C2352,53,2400,67,2448,68.3C2496,70,2544,60,2592,61.7C2640,63,2688,77,2736,73.3C2784,70,2832,50,2880,43.3C2928,37,2976,43,3024,38.3C3072,33,3120,17,3168,15C3216,13,3264,27,3312,36.7C3360,47,3408,53,3432,56.7L3456,60L3456,100L3432,100C3408,100,3360,100,3312,100C3264,100,3216,100,3168,100C3120,100,3072,100,3024,100C2976,100,2928,100,2880,100C2832,100,2784,100,2736,100C2688,100,2640,100,2592,100C2544,100,2496,100,2448,100C2400,100,2352,100,2304,100C2256,100,2208,100,2160,100C2112,100,2064,100,2016,100C1968,100,1920,100,1872,100C1824,100,1776,100,1728,100C1680,100,1632,100,1584,100C1536,100,1488,100,1440,100C1392,100,1344,100,1296,100C1248,100,1200,100,1152,100C1104,100,1056,100,1008,100C960,100,912,100,864,100C816,100,768,100,720,100C672,100,624,100,576,100C528,100,480,100,432,100C384,100,336,100,288,100C240,100,192,100,144,100C96,100,48,100,24,100L0,100Z"/></svg>